<?xml version="1.0" encoding="UTF-8"?>
<svg id="Capa_1" data-name="Capa 1" xmlns="http://www.w3.org/2000/svg" viewBox="0 0 152.94 63.4">
  <defs>
    <style>
      .cls-1 {
        fill: #dce0e0;
      }

      .cls-2 {
        fill: #9acfdb;
      }
    </style>
  </defs>
  <g>
    <path class="cls-1" d="m73.46,53.81h-5.91l-1.33,2.89h-.52l4.57-9.88h.47l4.57,9.88h-.52l-1.33-2.89Zm-.18-.41l-2.77-6.02-2.78,6.02h5.55Z"/>
    <path class="cls-1" d="m78.49,49.8c.48-.32,1.08-.47,1.8-.47v.47h-.13c-.85,0-1.51.27-1.99.8-.48.54-.72,1.27-.72,2.21v3.89h-.47v-7.32h.45v1.76c.22-.58.57-1.03,1.05-1.35Z"/>
    <path class="cls-1" d="m86.13,56.24c-.17.16-.39.28-.65.37-.26.09-.54.13-.82.13-.59,0-1.05-.17-1.38-.5-.32-.33-.49-.79-.49-1.38v-5.08h-1.38v-.41h1.38v-1.61h.47v1.61h2.41v.41h-2.41v5.01c0,.5.12.88.37,1.14.24.26.6.39,1.07.39s.87-.15,1.19-.44l.24.34Z"/>
    <path class="cls-1" d="m98.86,56.84l-1.48-1.59c-.77,1.01-1.86,1.51-3.27,1.51-.61,0-1.15-.1-1.62-.3-.47-.2-.84-.49-1.11-.86-.27-.37-.4-.8-.4-1.28,0-.56.19-1.08.59-1.56.39-.47,1.07-1,2.04-1.57l-.07-.08c-.49-.52-.82-.94-1-1.28-.17-.33-.26-.7-.26-1.09,0-.59.2-1.07.6-1.43.4-.36.94-.54,1.62-.54.64,0,1.15.16,1.52.49.37.32.56.77.56,1.33,0,.48-.17.91-.5,1.29-.33.38-.94.84-1.81,1.38l3.1,3.33c.34-.59.58-1.28.73-2.07l.39.1c-.18.9-.46,1.66-.85,2.27l1.54,1.65-.31.31Zm-1.76-1.89l-3.22-3.47c-.63.38-1.12.71-1.47,1.01s-.6.59-.75.87c-.15.28-.22.59-.22.93,0,.62.25,1.12.74,1.5.49.38,1.14.57,1.94.57,1.28,0,2.27-.47,2.98-1.41Zm-4.13-5.28c.17.3.48.71.95,1.23l.06.06c.56-.33,1-.62,1.31-.87.31-.25.52-.49.66-.73.13-.23.2-.49.2-.78,0-.43-.15-.78-.44-1.04-.29-.26-.7-.39-1.21-.39-.55,0-.98.14-1.29.43-.32.29-.47.67-.47,1.14,0,.33.08.64.25.94Z"/>
    <path class="cls-1" d="m104.66,46.83h3.81c1.02,0,1.93.21,2.73.63.8.42,1.41,1.01,1.85,1.76.44.75.66,1.6.66,2.55s-.22,1.8-.66,2.55c-.44.75-1.05,1.33-1.85,1.76-.79.42-1.71.63-2.73.63h-3.81v-9.88Zm3.78,9.44c.96,0,1.8-.19,2.52-.58.72-.39,1.28-.92,1.67-1.6s.59-1.46.59-2.32-.2-1.64-.59-2.32-.95-1.22-1.67-1.6c-.72-.39-1.56-.58-2.52-.58h-3.3v9h3.3Z"/>
    <path class="cls-1" d="m122.11,53.11h-6.42c0,.62.16,1.18.44,1.66s.67.87,1.16,1.14,1.05.41,1.66.41c.5,0,.96-.09,1.38-.27.42-.18.77-.45,1.04-.81l.3.31c-.33.39-.73.68-1.2.89-.47.21-.98.31-1.52.31-.72,0-1.35-.16-1.91-.47-.56-.31-1-.75-1.32-1.32-.32-.56-.48-1.2-.48-1.92s.15-1.35.44-1.92.71-1,1.23-1.32,1.11-.47,1.76-.47,1.22.16,1.74.47c.52.31.93.74,1.23,1.3s.45,1.18.45,1.89v.13Zm-4.91-2.98c-.44.25-.79.61-1.06,1.06-.26.46-.41.97-.44,1.53h5.97c-.04-.56-.19-1.07-.46-1.53-.27-.46-.62-.81-1.06-1.06-.44-.25-.93-.38-1.47-.38s-1.04.13-1.48.38Z"/>
    <path class="cls-1" d="m124.5,56.48c-.52-.18-.93-.41-1.22-.71l.23-.37c.3.26.69.48,1.16.66.48.18.98.27,1.52.27.79,0,1.37-.13,1.75-.4s.56-.64.56-1.12c0-.34-.1-.61-.3-.8s-.45-.34-.75-.44c-.3-.09-.71-.19-1.21-.28-.59-.11-1.07-.23-1.42-.35-.35-.12-.65-.31-.9-.57-.24-.26-.37-.63-.37-1.1,0-.55.23-1.02.68-1.39.46-.37,1.12-.56,2-.56.45,0,.9.07,1.35.2.45.14.82.32,1.1.54l-.24.37c-.29-.23-.63-.4-1.02-.51-.39-.12-.79-.18-1.21-.18-.72,0-1.27.14-1.64.42-.37.28-.55.64-.55,1.09,0,.36.1.64.31.85.21.21.46.36.77.46s.72.2,1.25.3c.56.1,1.02.21,1.37.33.35.12.64.3.88.56.24.25.36.61.36,1.06,0,.59-.24,1.06-.72,1.41-.48.35-1.17.52-2.07.52-.59,0-1.15-.09-1.67-.27Z"/>
    <path class="cls-1" d="m130.94,47.33c-.09-.09-.14-.2-.14-.32,0-.13.04-.24.13-.33s.2-.13.33-.13c.12,0,.23.04.32.13s.14.2.14.32-.05.23-.14.32-.2.14-.32.14-.23-.04-.32-.13Zm.1,2.05h.47v7.32h-.47v-7.32Z"/>
    <path class="cls-1" d="m141.09,49.38v6.62c0,1.19-.29,2.06-.86,2.63-.57.57-1.44.85-2.6.85-.68,0-1.31-.1-1.89-.31-.58-.21-1.05-.5-1.4-.87l.27-.35c.38.36.82.63,1.33.82.51.19,1.07.29,1.67.29,1.03,0,1.78-.24,2.27-.73.49-.49.73-1.24.73-2.28v-1.55c-.27.6-.69,1.08-1.26,1.42-.56.35-1.21.52-1.93.52-.69,0-1.31-.15-1.86-.46-.55-.31-.98-.73-1.3-1.27-.32-.54-.47-1.15-.47-1.84s.16-1.3.47-1.84c.31-.54.75-.96,1.3-1.26.55-.3,1.17-.45,1.86-.45.72,0,1.37.17,1.94.52.57.35.99.83,1.26,1.44v-1.9h.45Zm-2.01,6.24c.48-.27.86-.64,1.14-1.12.28-.48.42-1.02.42-1.62s-.14-1.14-.42-1.62c-.28-.47-.66-.84-1.14-1.11-.48-.26-1.03-.39-1.63-.39s-1.14.13-1.63.39-.86.63-1.14,1.11c-.27.47-.41,1.01-.41,1.62s.14,1.15.41,1.63c.27.48.65.85,1.14,1.11s1.03.4,1.63.4,1.15-.13,1.63-.4Z"/>
    <path class="cls-1" d="m149.83,50.12c.53.53.79,1.29.79,2.28v4.3h-.47v-4.28c0-.87-.22-1.53-.66-1.98-.44-.46-1.06-.68-1.87-.68-.91,0-1.63.27-2.16.81-.53.54-.79,1.27-.79,2.18v3.95h-.47v-7.32h.45v1.79c.24-.57.61-1.02,1.14-1.35.52-.33,1.15-.49,1.87-.49.91,0,1.63.27,2.16.8Z"/>
  </g>
  <g>
    <g>
      <path class="cls-2" d="m24.34,38.37c.94-.32,2.54-.55,3.07-1.34.14-.26-.01-.8-.25-1.34-.5-1.06-1.65-4.05-2.08-5.19-.44-1.16-.9-2.32-1.27-3.51l.81.58c-4.01-.06-8.18-.22-12.14-.8,0,0,0-.1,0-.1l12.14-.04h.07c.05.07,2.46,7.02,2.5,7.09,0,0,.62,1.76.62,1.76.18.59.42,1.28.06,1.85-.88.97-2.32.91-3.51,1.13,0,0-.01-.1-.01-.1h0Z"/>
      <path class="cls-2" d="m14.11,40.04l-12.98.42h-.46s0-.47,0-.47c.01-.37-.05-1.68-.04-2,0,0,.44-.07.44-.07,4.33-.22,4.85-3.12,6.21-6.63,1.2-3.28,2.49-6.54,3.75-9.8,1.36-3.4,4.36-11.38,5.7-14.67.45-.95,1.02-3.04,1.82-3.82.53-.56,1.24-.96,2-1.11.28-.08.91.01,1.14.41.15.22.2.44.29.66,0,0,.44,1.23.44,1.23,3.12,8.54,6.59,18.57,9.55,27.23.93,2.27,1.18,5.39,3.74,6.34.8.28,1.67.41,2.53.54h.09s0,.1,0,.1l-.05,1.57h-.1v-1.57c-1.41,0-3.74-.41-4.62-1.98-1.73-3.04-4.32-11.32-5.68-14.67-1.19-3.25-4.27-11.63-5.42-14.77,0,0-.9-2.46-.9-2.46l-.45-1.23c-.09-.19-.12-.48-.25-.49-1.03.12-1.95.95-2.26,1.94,0,0-.96,2.44-.96,2.44l-1.93,4.88c-1.92,4.86-5.8,14.65-7.72,19.51-1.46,3.66-2.37,6.89-6.79,6.84,0,0,0,1.57,0,1.57-.4-.14,13.01-.02,12.92-.05,0,0,0,.1,0,.1h0Z"/>
    </g>
    <g>
      <path class="cls-2" d="m71.04,17.57c.08,6.56,1.48,14.41-3.29,19.77-4.5,5.18-13.99,5.33-19.73,2.22-4.87-2.76-6.45-8.63-6.35-13.88.04-4.9.02-10.29.12-15.16-.06-1.34.26-3.34-.84-4.19-.52-.35-1.35-.49-2.15-.61-.55-.03-1.16-.24-1.48-.73-.44-.57-.25-1.39-.27-2.06,4.48.03,10.74.35,15.29.47,0,0,0,.1,0,.1.06,0-15.08.09-14.72-.05.01.42-.07.86.19,1.18.23.35.64.43,1.07.46.83.11,1.7.2,2.45.66,1.48,1.07,1.15,3.16,1.25,4.76,0,0,.01,10.1.01,10.1.05,3.36-.19,6.76.52,10.05,1.38,7.52,8.01,10.57,15.12,9.99,3.31-.18,6.77-1.22,9.02-3.78,4.68-5.14,3.53-12.89,3.7-19.31,0,0,.1,0,.1,0h0Z"/>
      <path class="cls-2" d="m58.01,37.53c9.31-.35,9.9-8.25,9.7-15.73-.07-4.12-.02-8.21-.24-12.28.04-3.08-1.43-3.34-4.13-3.71-.79,0-1.52-.91-1.4-1.67.01-.34.03-1.03.04-1.37.34.02,3.58.1,4.01.13,3.38.1,6.75.27,10.12.51,0,0,0,.1,0,.1l-13.49.02.07-.07c.04.45-.11.95.17,1.28.26.36.78.26,1.23.34,1.79.15,3.96.93,4.15,3,.49,4.56.34,9.14.36,13.71-.04,5.16.01,12.03-5.25,14.74-1.65.84-3.53,1.08-5.35,1.08v-.1h0Z"/>
    </g>
    <g>
      <path class="cls-2" d="m88.62,32.91c1.5,5,.96,3.63,5.65,5.18-.14.64-.27,1.27-.53,1.9h-.1s-.01-1.57-.01-1.57l.06.06c-.75-.07-1.5-.14-2.25-.27-.73-.13-1.53-.32-2.09-.9-1-1.24-.77-2.92-.82-4.4,0,0,.1,0,.1,0h0Z"/>
      <path class="cls-2" d="m112,40.49c-3.71.5-8.01,0-10.46-3.18-2.42-2.82-4.18-6.06-5.97-9.26-.59-1.04-1.07-2.24-1.81-2.92-.74-.72-2.06-.8-3.24-1v-.1c.61,0,1.21,0,1.82.08,1.27.07,2.31.92,2.91,2,1.61,2.55,3.16,5.2,4.83,7.69,1.35,1.98,2.71,4.09,4.86,5.25,2.14,1.17,4.65,1.21,7.04,1.35v.1h0Z"/>
      <path class="cls-2" d="m78.67,38.37c5.63-.55,4.73-2.02,4.69-6.85-.2-6.94-.29-13.88-.39-20.82-.1-1.31.2-3.41-.89-4.16-.56-.34-1.64-.48-2.5-.59-.55-.03-1.1-.3-1.41-.77-.49-.66-.27-1.66-.33-2.55,0,0,.83,0,.83,0l11.31-.05c3.83.07,7.87-.25,11.49,1.55,5.85,2.7,6.72,11.32,2.23,15.64-1.41,1.42-3.14,2.42-4.92,3.17l.25-.75c2.99,4.71,5.5,9.78,9.13,14.06-3.37-3.15-6.94-9.77-9.65-13.76,0,0-.04-.06-.04-.06l.07-.03c5.58-2.16,8.88-7.81,6.39-13.56-1.58-3.58-5.61-5.04-9.29-5.2-3.79-.19-13.04-.04-16.96-.09,0,0,.09-.09.09-.09.03.43-.09.9.15,1.22.24.38.69.38,1.1.43,3.9.3,3.78,2.33,3.8,5.6,0,5.19-.02,15.63-.02,20.82-.14,2.33.7,6.19-2.53,6.58-.85.18-1.72.27-2.58.36v-.1h-.01Z"/>
      <path class="cls-2" d="m91.26,22.13c2.67-.26,5.38-1,6.97-3.26,1.53-2.03,1.72-4.88,1.22-7.3-.39-2.57-2.3-4.49-4.76-5.16-1.51-.45-3.28-.6-4.86-.33-.29.07-.53.21-.7.43-.34.47-.41,1.22-.51,1.89h-.1c.02-.69-.02-1.42.33-2.06.39-.65,1.19-.8,1.86-.89,1.39-.15,2.81-.12,4.17.22,6,1.12,7.4,9.39,3.95,13.69-1.81,2.29-4.77,2.98-7.56,2.87,0,0,0-.1,0-.1h0Z"/>
    </g>
    <g>
      <path class="cls-2" d="m136.63,38.37c.94-.32,2.54-.55,3.07-1.34.14-.26-.01-.8-.25-1.34-.5-1.06-1.65-4.05-2.08-5.19-.44-1.16-.9-2.32-1.27-3.51l.81.58c-4.01-.06-8.18-.22-12.14-.8,0,0,0-.1,0-.1l12.14-.04c.07,0,.06-.02.09.06,0,0,2.48,7.03,2.48,7.03l.62,1.76c.18.59.42,1.28.06,1.85-.88.97-2.32.91-3.51,1.13,0,0-.01-.1-.01-.1h0Z"/>
      <path class="cls-2" d="m126.4,40.04l-12.98.42h-.46s0-.47,0-.47c.01-.37-.05-1.68-.04-2,0,0,.44-.07.44-.07,4.33-.22,4.85-3.12,6.21-6.62,1.2-3.28,2.49-6.53,3.75-9.8,1.83-4.64,4.82-12.58,6.68-17.1.37-1.15,1.42-2.19,2.63-2.46.53-.18,1.18.02,1.45.54.41,1.03,1.13,3.13,1.52,4.2,2.79,7.62,6.01,17.03,8.66,24.76.93,2.27,1.18,5.39,3.74,6.34.8.28,1.67.41,2.53.54h.09s0,.1,0,.1l-.05,1.57h-.1v-1.57c-1.41,0-3.74-.41-4.62-1.98-1.73-3.04-4.32-11.32-5.68-14.67-1.19-3.25-4.27-11.63-5.42-14.77,0,0-.9-2.46-.9-2.46l-.45-1.23c-.09-.2-.11-.45-.27-.48-1.02.06-1.95.94-2.24,1.93-3.15,8-7.42,18.79-10.6,26.83-1.46,3.66-2.37,6.89-6.79,6.84,0,0,0,1.57,0,1.57-.4-.14,13.01-.02,12.92-.05,0,0,0,.1,0,.1h0Z"/>
    </g>
  </g>
</svg>