<?xml version="1.0" encoding="UTF-8"?>
<svg id="Capa_1" data-name="Capa 1" xmlns="http://www.w3.org/2000/svg" viewBox="0 0 1210.88 473.06">
  <defs>
    <style>
      .cls-1 {
        fill: #dce0e0;
      }

      .cls-2 {
        fill: #9acfdb;
      }
    </style>
  </defs>
  <g>
    <path class="cls-1" d="m592.51,418.09h-46.58l-10.45,22.79h-4.12l36.02-77.84h3.67l36.02,77.84h-4.12l-10.45-22.79Zm-1.44-3.23l-21.8-47.48-21.91,47.48h43.71Z"/>
    <path class="cls-1" d="m632.15,386.45c3.81-2.48,8.54-3.72,14.17-3.72v3.67h-1c-6.68,0-11.9,2.11-15.68,6.34-3.78,4.22-5.67,10.04-5.67,17.46v30.69h-3.66v-57.71h3.56v13.9c1.71-4.6,4.47-8.14,8.29-10.62Z"/>
    <path class="cls-1" d="m692.36,437.21c-1.34,1.26-3.04,2.24-5.12,2.95-2.07.71-4.23,1.06-6.44,1.06-4.68,0-8.29-1.32-10.85-3.95-2.55-2.63-3.83-6.24-3.83-10.84v-40.03h-10.9v-3.23h10.9v-12.68h3.66v12.68h19.01v3.23h-19.01v39.47c0,3.93.96,6.93,2.9,9.01,1.92,2.08,4.74,3.11,8.44,3.11s6.82-1.15,9.35-3.45l1.89,2.67Z"/>
    <path class="cls-1" d="m792.66,442l-11.68-12.56c-6.08,7.93-14.68,11.89-25.8,11.89-4.81,0-9.08-.8-12.79-2.39-3.7-1.59-6.61-3.85-8.72-6.78-2.12-2.93-3.17-6.28-3.17-10.06,0-4.45,1.53-8.54,4.62-12.29,3.07-3.74,8.42-7.88,16.06-12.4l-.55-.67c-3.85-4.08-6.47-7.43-7.85-10.06-1.37-2.63-2.05-5.5-2.05-8.61,0-4.67,1.57-8.42,4.72-11.23,3.15-2.81,7.39-4.23,12.73-4.23,5.04,0,9.03,1.28,11.95,3.84,2.93,2.56,4.4,6.06,4.4,10.51,0,3.78-1.32,7.17-3.95,10.18-2.63,3-7.39,6.61-14.29,10.84l24.47,26.24c2.67-4.67,4.6-10.12,5.78-16.35l3.11.78c-1.41,7.12-3.64,13.08-6.68,17.9l12.13,13.01-2.44,2.45Zm-13.9-14.9l-25.36-27.36c-4.97,2.96-8.84,5.61-11.62,7.95-2.78,2.33-4.75,4.62-5.89,6.84-1.16,2.23-1.73,4.67-1.73,7.34,0,4.89,1.95,8.84,5.84,11.84,3.89,3,8.99,4.5,15.29,4.5,10.08,0,17.9-3.71,23.46-11.12Zm-32.53-41.59c1.3,2.38,3.8,5.6,7.51,9.67l.44.45c4.44-2.6,7.87-4.88,10.29-6.84,2.41-1.96,4.13-3.87,5.17-5.73,1.04-1.85,1.56-3.89,1.56-6.11,0-3.41-1.15-6.14-3.45-8.18-2.3-2.04-5.48-3.05-9.56-3.05-4.3,0-7.69,1.13-10.17,3.39-2.49,2.26-3.73,5.24-3.73,8.95,0,2.59.65,5.08,1.95,7.45Z"/>
    <path class="cls-1" d="m838.36,363.05h30.02c8.07,0,15.25,1.67,21.51,5,6.27,3.33,11.12,7.95,14.57,13.84,3.45,5.9,5.17,12.59,5.17,20.07s-1.72,14.18-5.17,20.07c-3.45,5.9-8.3,10.51-14.57,13.85-6.26,3.33-13.44,5-21.51,5h-30.02v-77.84Zm29.8,74.39c7.57,0,14.18-1.52,19.84-4.56,5.67-3.04,10.07-7.25,13.18-12.62,3.11-5.38,4.67-11.47,4.67-18.29s-1.56-12.91-4.67-18.29c-3.11-5.38-7.51-9.58-13.18-12.62-5.66-3.04-12.28-4.56-19.84-4.56h-26.02v70.94h26.02Z"/>
    <path class="cls-1" d="m975.91,412.53h-50.59c.07,4.89,1.22,9.27,3.45,13.12,2.23,3.85,5.28,6.86,9.18,9.01,3.89,2.15,8.24,3.22,13.07,3.22,3.93,0,7.56-.72,10.9-2.17,3.34-1.44,6.08-3.57,8.23-6.39l2.33,2.45c-2.6,3.04-5.75,5.38-9.45,7-3.71,1.63-7.71,2.45-12.01,2.45-5.64,0-10.66-1.24-15.07-3.73-4.42-2.48-7.88-5.95-10.4-10.39-2.52-4.45-3.78-9.49-3.78-15.13s1.17-10.67,3.5-15.12c2.33-4.45,5.57-7.91,9.73-10.4,4.15-2.48,8.79-3.72,13.9-3.72s9.62,1.22,13.74,3.67c4.11,2.44,7.36,5.85,9.73,10.23,2.37,4.38,3.56,9.34,3.56,14.9v1Zm-38.69-23.46c-3.48,2-6.26,4.8-8.34,8.39-2.07,3.6-3.22,7.62-3.45,12.07h47.04c-.3-4.45-1.5-8.47-3.61-12.07-2.12-3.59-4.9-6.39-8.34-8.39-3.45-2-7.32-3-11.62-3s-8.19,1-11.67,3Z"/>
    <path class="cls-1" d="m994.76,439.11c-4.12-1.41-7.32-3.26-9.62-5.56l1.78-2.89c2.37,2.08,5.43,3.82,9.17,5.23,3.75,1.41,7.73,2.11,11.95,2.11,6.23,0,10.82-1.05,13.79-3.17s4.44-5.06,4.44-8.84c0-2.67-.8-4.78-2.39-6.34s-3.57-2.71-5.95-3.45c-2.37-.74-5.57-1.48-9.56-2.22-4.67-.89-8.4-1.8-11.18-2.73-2.78-.92-5.13-2.43-7.06-4.5-1.93-2.07-2.9-4.96-2.9-8.67,0-4.37,1.8-8.02,5.39-10.95,3.6-2.93,8.84-4.39,15.74-4.39,3.56,0,7.12.54,10.68,1.61,3.56,1.08,6.44,2.5,8.67,4.28l-1.89,2.89c-2.3-1.78-4.99-3.13-8.06-4.06-3.08-.92-6.24-1.39-9.5-1.39-5.71,0-10.01,1.09-12.9,3.28-2.89,2.19-4.33,5.06-4.33,8.62,0,2.82.81,5.04,2.45,6.67,1.63,1.63,3.65,2.84,6.05,3.62,2.41.78,5.69,1.57,9.85,2.39,4.44.82,8.04,1.69,10.79,2.62,2.74.93,5.06,2.39,6.95,4.39,1.89,2,2.83,4.78,2.83,8.34,0,4.67-1.89,8.37-5.67,11.12-3.77,2.75-9.23,4.12-16.34,4.12-4.67,0-9.07-.71-13.18-2.11Z"/>
    <path class="cls-1" d="m1045.51,366.99c-.74-.7-1.11-1.54-1.11-2.5,0-1.04.35-1.9,1.06-2.61.71-.71,1.57-1.06,2.62-1.06.96,0,1.81.35,2.55,1.06.74.71,1.11,1.54,1.11,2.5s-.37,1.81-1.11,2.56c-.74.74-1.59,1.11-2.55,1.11s-1.82-.35-2.56-1.06Zm.78,16.18h3.66v57.71h-3.66v-57.71Z"/>
    <path class="cls-1" d="m1125.46,383.17v52.15c0,9.34-2.26,16.25-6.79,20.74-4.52,4.48-11.34,6.72-20.46,6.72-5.34,0-10.31-.81-14.9-2.44-4.6-1.63-8.26-3.93-11-6.9l2.11-2.78c2.97,2.81,6.47,4.98,10.51,6.5,4.04,1.52,8.42,2.28,13.18,2.28,8.08,0,14.04-1.91,17.9-5.72,3.85-3.82,5.78-9.8,5.78-17.96v-12.23c-2.15,4.75-5.45,8.49-9.9,11.23-4.44,2.75-9.52,4.12-15.23,4.12-5.41,0-10.29-1.2-14.62-3.62-4.33-2.41-7.75-5.75-10.23-10.01-2.49-4.26-3.73-9.1-3.73-14.51s1.24-10.25,3.73-14.51c2.48-4.26,5.89-7.58,10.23-9.95,4.33-2.37,9.21-3.56,14.62-3.56,5.71,0,10.8,1.37,15.29,4.11,4.48,2.74,7.8,6.52,9.94,11.34v-15.01h3.57Zm-15.84,49.2c3.81-2.11,6.81-5.06,9-8.84,2.18-3.78,3.28-8.04,3.28-12.79s-1.09-8.99-3.28-12.73c-2.19-3.74-5.19-6.65-9-8.73-3.82-2.08-8.11-3.11-12.85-3.11s-9.02,1.04-12.84,3.11c-3.82,2.08-6.8,4.99-8.95,8.73-2.15,3.74-3.23,7.99-3.23,12.73s1.08,9.1,3.23,12.84c2.14,3.75,5.13,6.67,8.95,8.79,3.82,2.11,8.1,3.17,12.84,3.17s9.03-1.05,12.85-3.17Z"/>
    <path class="cls-1" d="m1194.4,389.01c4.14,4.19,6.23,10.18,6.23,17.96v33.92h-3.67v-33.69c0-6.82-1.72-12.03-5.17-15.62-3.45-3.6-8.36-5.39-14.73-5.39-7.19,0-12.87,2.13-17.01,6.39-4.15,4.26-6.23,9.99-6.23,17.18v31.13h-3.66v-57.71h3.56v14.12c1.86-4.52,4.84-8.08,8.95-10.67,4.12-2.59,9.03-3.89,14.74-3.89,7.18,0,12.86,2.09,17.01,6.28Z"/>
  </g>
  <g>
    <g>
      <path class="cls-2" d="m205.33,296.4c7.41-2.54,20.05-4.35,24.18-10.52,1.13-2.02-.11-6.31-1.94-10.54-3.97-8.38-12.97-31.94-16.36-40.91-3.5-9.16-7.09-18.29-9.99-27.66l6.37,4.59c-31.6-.46-64.45-1.72-95.68-6.33,0,0,0-.77,0-.77l95.68-.35h.52c.36.54,19.39,55.32,19.7,55.87,0,0,4.85,13.86,4.85,13.86,1.45,4.61,3.31,10.12.44,14.62-6.95,7.68-18.3,7.14-27.68,8.91,0,0-.09-.77-.09-.77h0Z"/>
      <path class="cls-2" d="m124.75,309.58l-102.32,3.32-3.64.12-.07-3.83c.11-2.89-.36-13.24-.29-15.79,0,0,3.5-.52,3.5-.52,34.16-1.74,38.2-24.59,48.91-52.21,9.5-25.88,19.65-51.51,29.56-77.23,10.72-26.8,34.36-89.7,44.92-115.62,3.55-7.5,8-24,14.34-30.12,4.2-4.44,9.78-7.54,15.77-8.73,2.21-.65,7.17.11,9,3.24,1.19,1.76,1.58,3.47,2.25,5.23,0,0,3.49,9.73,3.49,9.73,24.59,67.33,51.94,146.38,75.26,214.61,7.32,17.91,9.3,42.51,29.47,49.98,6.29,2.24,13.18,3.19,19.96,4.24l.72.11-.02.67-.4,12.4h-.77v-12.4c-11.12-.02-29.47-3.26-36.38-15.62-13.62-23.96-34.07-89.24-44.78-115.65-9.4-25.59-33.63-91.67-42.73-116.44,0,0-7.12-19.41-7.12-19.41l-3.56-9.7c-.71-1.46-.95-3.75-1.96-3.87-8.1.91-15.35,7.47-17.84,15.3,0,0-7.56,19.24-7.56,19.24l-15.18,38.46c-15.13,38.34-45.68,115.46-60.81,153.79-11.47,28.87-18.64,54.28-53.54,53.92,0,0-.01,12.4-.01,12.4-3.14-1.11,102.56-.13,101.83-.39,0,0,0,.77,0,.77h0Z"/>
    </g>
    <g>
      <path class="cls-2" d="m573.4,132.45c.61,51.71,11.64,113.56-25.92,155.8-35.5,40.85-110.25,41.98-155.52,17.53-38.36-21.79-50.82-68.04-50.04-109.38.33-38.6.13-81.13.92-119.47-.48-10.58,2.03-26.32-6.59-33.02-4.06-2.77-10.67-3.87-16.96-4.79-4.36-.26-9.18-1.87-11.68-5.76-3.44-4.49-1.96-10.98-2.13-16.2,35.32.27,84.68,2.78,120.49,3.72,0,0,0,.77,0,.77.45.02-118.88.69-115.99-.38.11,3.31-.53,6.78,1.5,9.31,1.85,2.77,5.06,3.41,8.42,3.61,6.53.9,13.4,1.6,19.28,5.22,11.65,8.43,9.06,24.92,9.84,37.49,0,0,.1,79.61.1,79.61.39,26.48-1.47,53.25,4.07,79.19,10.89,59.3,63.11,83.3,119.19,78.7,26.09-1.46,53.39-9.59,71.08-29.79,36.91-40.52,27.78-101.63,29.19-152.16,0,0,.77,0,.77,0h0Z"/>
      <path class="cls-2" d="m470.69,289.76c73.39-2.79,78.01-65,76.42-123.97-.55-32.44-.16-64.67-1.87-96.76.35-24.27-11.28-26.35-32.55-29.23-6.21-.05-11.97-7.15-11.06-13.14.1-2.64.25-8.13.34-10.78,2.72.19,28.19.82,31.62,1.01,26.6.8,53.16,2.12,79.73,3.98,0,0,0,.77,0,.77l-106.3.18.57-.57c.31,3.52-.84,7.52,1.38,10.09,2.06,2.82,6.15,2.05,9.67,2.7,14.11,1.14,31.21,7.36,32.73,23.65,3.85,35.92,2.7,72.06,2.85,108.09-.29,40.66.09,94.83-41.36,116.21-13,6.63-27.79,8.51-42.17,8.53v-.77h0Z"/>
    </g>
    <g>
      <path class="cls-2" d="m711.92,253.37c11.82,39.41,7.53,28.62,44.51,40.83-1.08,5.07-2.15,10.01-4.19,14.99h-.77s-.11-12.4-.11-12.4l.45.5c-5.91-.56-11.82-1.1-17.71-2.09-5.76-1.06-12.08-2.51-16.44-7.12-7.89-9.79-6.05-23.04-6.5-34.7,0,0,.78,0,.78,0h0Z"/>
      <path class="cls-2" d="m896.25,313.12c-29.21,3.94-63.11-.02-82.44-25.04-19.11-22.24-32.94-47.77-47.02-72.99-4.68-8.23-8.44-17.65-14.25-22.98-5.81-5.71-16.22-6.31-25.5-7.89v-.77c4.78,0,9.57.05,14.35.62,10.03.51,18.19,7.24,22.94,15.74,12.66,20.07,24.89,40.95,38.1,60.59,10.62,15.62,21.37,32.25,38.32,41.34,16.86,9.21,36.67,9.54,55.51,10.61v.77h0Z"/>
      <path class="cls-2" d="m633.53,296.4c44.4-4.31,37.28-15.93,36.94-53.96-1.57-54.68-2.3-109.38-3.05-164.08-.75-10.29,1.56-26.87-7.03-32.79-4.45-2.69-12.92-3.8-19.7-4.62-4.32-.25-8.65-2.4-11.1-6.05-3.85-5.23-2.14-13.11-2.56-20.13,0,0,6.55-.03,6.55-.03l89.17-.41c30.19.55,62.04-1.97,90.53,12.22,46.13,21.3,52.99,89.22,17.55,123.26-11.13,11.23-24.75,19.11-38.79,24.98l1.95-5.91c23.53,37.14,43.35,77.11,71.99,110.8-26.56-24.85-54.71-76.96-76.04-108.45,0,0-.31-.49-.31-.49l.55-.24c43.99-17.02,69.97-61.53,50.33-106.85-12.44-28.25-44.23-39.73-73.24-40.99-29.84-1.47-102.8-.31-133.69-.71,0,0,.7-.7.7-.7.23,3.39-.7,7.06,1.19,9.59,1.92,3,5.42,2.96,8.67,3.41,30.72,2.36,29.82,18.37,29.94,44.1-.02,40.88-.13,123.2-.16,164.08-1.08,18.4,5.52,48.78-19.95,51.87-6.73,1.41-13.55,2.1-20.34,2.86l-.08-.77h0Z"/>
      <path class="cls-2" d="m732.8,168.38c21.06-2.03,42.44-7.87,54.93-25.7,12.08-16.03,13.54-38.46,9.61-57.57-3.05-20.25-18.16-35.35-37.52-40.64-11.89-3.57-25.86-4.75-38.34-2.58-2.28.54-4.16,1.69-5.53,3.42-2.64,3.68-3.24,9.61-4.02,14.93h-.77c.14-5.42-.17-11.19,2.61-16.27,3.09-5.13,9.4-6.31,14.64-7.04,10.93-1.18,22.11-.96,32.85,1.7,47.27,8.86,58.34,73.97,31.1,107.92-14.26,18.02-37.56,23.46-59.55,22.59,0,0,0-.77,0-.77h0Z"/>
    </g>
    <g>
      <path class="cls-2" d="m1090.31,296.4c7.41-2.54,20.05-4.35,24.18-10.52,1.13-2.02-.11-6.31-1.94-10.54-3.97-8.38-12.97-31.94-16.36-40.91-3.5-9.16-7.09-18.29-9.99-27.66l6.37,4.6c-31.6-.46-64.45-1.72-95.68-6.33,0,0,0-.77,0-.77l95.68-.35c.55.03.5-.16.7.5,0,0,19.53,55.37,19.53,55.37l4.85,13.86c1.45,4.61,3.31,10.12.44,14.62-6.95,7.68-18.3,7.14-27.68,8.91,0,0-.09-.77-.09-.77h0Z"/>
      <path class="cls-2" d="m1009.74,309.58l-102.32,3.32-3.64.12-.07-3.83c.12-2.9-.37-13.23-.29-15.79,0,0,3.5-.52,3.5-.52,34.15-1.74,38.2-24.58,48.91-52.2,9.49-25.88,19.65-51.5,29.56-77.22,14.41-36.54,37.97-99.13,52.61-134.79,2.94-9.08,11.15-17.26,20.75-19.36,4.17-1.38,9.33.15,11.41,4.27,3.2,8.11,8.9,24.71,11.99,33.09,21.99,60.04,47.34,134.21,68.27,195.13,7.32,17.91,9.3,42.5,29.47,49.97,6.29,2.24,13.18,3.19,19.95,4.24l.72.11-.02.67-.4,12.4h-.77v-12.4c-11.12-.03-29.47-3.26-36.38-15.62-13.62-23.95-34.07-89.23-44.77-115.64-9.4-25.6-33.62-91.65-42.72-116.43,0,0-7.12-19.4-7.12-19.4l-3.56-9.7c-.71-1.6-.9-3.55-2.14-3.78-8.08.47-15.34,7.41-17.69,15.2-24.84,63.07-58.51,148.12-83.55,211.46-11.47,28.87-18.65,54.27-53.54,53.91,0,0-.01,12.4-.01,12.4-3.14-1.1,102.57-.13,101.84-.39,0,0,0,.77,0,.77h0Z"/>
    </g>
  </g>
</svg>