<?xml version="1.0" encoding="UTF-8"?>
<svg id="Capa_1" data-name="Capa 1" xmlns="http://www.w3.org/2000/svg" viewBox="0 0 75.26 82.34">
  <defs>
    <style>
      .cls-1 {
        fill: #f9f9f9;
      }
    </style>
  </defs>
  <path class="cls-1" d="m45.78,20.96c-.45-.4-.5-.52-.18-.95.39-.51.81-1.03,1.32-1.4,1.52-1.13,3.07-2.2,4.63-3.27.83-.56,1.7-1.05,2.55-1.58.41-.26.8-.54,1.32-.89-1-.49-1.88-.95-2.78-1.36-3.16-1.44-6.46-2.39-9.89-2.87-3.1-.43-6.21-.48-9.32-.1-3.16.39-6.19,1.21-9.1,2.5-1.62.72-2.92,1.86-4.1,3.15-2.23,2.44-3.87,5.26-5.26,8.24-1.58,3.4-2.61,6.96-3.01,10.68-1.02,9.45,1.36,18.01,6.95,25.66,4.1,5.61,9.39,9.75,15.83,12.39,3.23,1.33,6.59,2.13,10.07,2.44,5.02.44,9.9-.17,14.66-1.81,1.31-.45,2.57-1.01,3.71-1.8.4-.28.78-.6,1.13-.93,2.18-2.09,4.58-3.89,7.28-5.27.63-.32,1.3-.57,1.97-.81.36-.13.8-.22,1.06.12.27.36-.03.74-.25,1.02-.53.66-1.06,1.32-1.68,1.9-5.49,5.09-11.5,9.41-18.41,12.38-3.9,1.68-7.95,2.84-12.17,3.38-4.08.51-8.12.31-12.15-.54-5.62-1.19-10.74-3.47-15.25-7.04-6.32-5-10.55-11.43-12.86-19.14-1.28-4.29-1.75-8.68-1.45-13.13.42-6.25,2.34-12.01,5.69-17.31,3.25-5.15,7.45-9.41,12.27-13.08,2.92-2.23,5.91-4.36,9.17-6.08,4.84-2.56,9.96-4.3,15.39-5.05C48.86-.42,54.69,0,60.38,1.95c2.39.82,4.66,1.89,6.81,3.21.55.34.62.52.32,1.08-.22.41-.5.79-.81,1.14-1.3,1.43-2.84,2.57-4.45,3.6-1.07.68-2.19,1.28-3.28,1.92-.23.13-.46.27-.67.44-2.09,1.74-3.9,3.72-5.16,6.15-.66,1.26-1.34,2.52-1.89,3.83-.46,1.1-.74,2.28-1.08,3.43-1.95,6.64-3.88,13.27-5.83,19.91-.07.25-.2.49-.29.74-.12.34-.01.49.35.53.13.01.27,0,.4,0,5.68,0,11.35,0,17.03.02.42,0,.74-.13,1.09-.38.92-.69,1.88-1.35,2.85-1.97.37-.23.82-.34,1.24-.46.32-.09.55.04.65.4.17.67.35,1.33.57,1.99.2.59-.02,1.04-.41,1.45-.8.85-1.71,1.56-2.69,2.18-.79.5-1.57,1.02-2.53,1.17-.24.04-.49.07-.73.07-7.46,0-14.92-.02-22.37-.02-.41,0-.83.12-1.24.2-.28.05-.56.16-.84.19-.62.08-.88-.22-.72-.83.23-.84.48-1.67.73-2.5,2.72-9.26,5.44-18.52,8.16-27.77.06-.21.12-.43.2-.69Z"/>
  <path class="cls-1" d="m65.4,64.02c-.07-.19.11-.41.23-.57.2-.27.18-.51.09-.81-.47-1.48-.91-2.97-1.41-4.45-.2-.58-.14-1.04.29-1.46.42-.4.81-.83,1.25-1.2,1.19-1,2.44-1.94,3.86-2.6.4-.19.83-.31,1.26-.4.41-.08.55.02.68.44.59,1.86,1.17,3.73,1.76,5.59.14.43.04.79-.23,1.12-.07.09-.14.18-.21.26-1.54,1.61-3.28,2.94-5.31,3.86-.44.2-.93.3-1.4.42-.28.07-.81,0-.88-.2Z"/>
  <path class="cls-1" d="m31.77,63.91c-.03-.07.06-.44.1-.61.42-1.36.84-2.72,1.26-4.08.18-.58.49-1.09.93-1.52,1.34-1.32,2.81-2.47,4.51-3.29.5-.24,1.03-.42,1.57-.56.46-.12.62.06.5.54-.1.39-.24.76-.36,1.15-.32,1.02-.61,2.05-.96,3.05-.15.43-.37.87-.68,1.2-1.39,1.5-3,2.72-4.84,3.62-.36.17-.74.32-1.12.42-.26.07-.87.15-.91.08Z"/>
</svg>